<?xml version="1.0" encoding="iso-8859-1"?>
<!-- Generator: Adobe Illustrator 19.0.0, SVG Export Plug-In . SVG Version: 6.00 Build 0)  -->
<svg xmlns="http://www.w3.org/2000/svg" xmlns:xlink="http://www.w3.org/1999/xlink" version="1.1" id="Layer_1" x="0px" y="0px" viewBox="0 0 508.001 508.001" style="enable-background:new 0 0 508.001 508.001;" xml:space="preserve">
<path style="fill:#E0F2F1;" d="M349.276,418.401c15.6,12,38,13.6,54,4.8l16.8-18.8c10.8-18,4-41.2-6.4-55.2c0,0,0,0,0-0.4  l-210.4-209.6l-45.6,45.6l-19.6,20.4L349.276,418.401C349.276,418.001,349.276,418.001,349.276,418.401z"/>
<polygon style="fill:#B2DFDB;" points="486.076,500.801 500.076,486.401 420.476,407.201 406.876,422.801 "/>
<path style="fill:#4DB6AC;" d="M25.676,25.601c-26,26-26,67.6-0.4,93.6l84.8,84.8l93.6-93.6l-84.8-84.8  C93.676-0.399,51.676-0.399,25.676,25.601z"/>
<path style="fill:#009688;" d="M216.876,112.001c-1.2-1.2-2.8-1.6-4.4-1.6c-1.6,0-3.2,0.8-4.4,1.6l-96.4,96.4c-2.4,2.4-2.4,6,0,8.4  s6.4,2.4,8.4,0l96.4-96.4C219.276,118.001,219.276,114.001,216.876,112.001z"/>
<path d="M272.476,298.401c-1.2,0-2-0.4-2.8-1.2c-1.6-1.6-1.6-4,0-5.6l22.4-22.4c1.6-1.6,4-1.6,5.6,0s1.6,4,0,5.6l-22.4,22.4  C274.476,298.001,273.276,298.401,272.476,298.401z"/>
<path d="M309.276,335.601c-1.2,0-2-0.4-2.8-1.2c-1.6-1.6-1.6-4,0-5.6l22.4-22.4c1.6-1.6,4-1.6,5.6,0s1.6,4,0,5.6l-22.4,22.4  C311.276,335.201,310.476,335.601,309.276,335.601z"/>
<path d="M235.276,261.601c-1.2,0-2-0.4-2.8-1.2c-1.6-1.6-1.6-4,0-5.6l22.4-22.4c1.6-1.6,4-1.6,5.6,0s1.6,4,0,5.6l-22.4,22.4  C237.276,261.201,236.476,261.601,235.276,261.601z"/>
<path d="M346.076,372.401c-1.2,0-2-0.4-2.8-1.2c-1.6-1.6-1.6-4,0-5.6l22.4-22.4c1.6-1.6,4-1.6,5.6,0s1.6,4,0,5.6l-22.4,22.4  C348.476,372.001,347.276,372.401,346.076,372.401z"/>
<path d="M110.076,210.001c-1.2,0-2-0.4-2.8-1.2l-85.6-85.6c-28-28-28-73.6,0.4-102c28-28,74-28.4,102-0.4l85.6,85.6  c1.6,1.6,1.6,4,0,5.6s-4,1.6-5.6,0l-85.6-85.6c-24.8-24.8-65.6-24.8-90.8,0.4c-25.2,25.2-25.2,65.6-0.4,90.8l85.6,85.6  c1.6,1.6,1.6,4,0,5.6C112.076,209.601,110.876,210.001,110.076,210.001z"/>
<path d="M116.076,224.401c-3.2,0-6-1.2-8.4-3.6s-3.6-5.2-3.6-8.4c0-3.2,1.2-6.4,3.6-8.4l96.4-96.4c2.4-2.4,5.2-3.6,8.4-3.6l0,0  c3.2,0,6.4,1.2,8.4,3.6l0,0l0,0l0,0c2.4,2.4,3.6,5.2,3.6,8.4c0,3.2-1.2,6.4-3.6,8.4l-96.4,96.4  C122.476,223.201,119.276,224.401,116.076,224.401z M212.476,112.001c-1.2,0-2,0.4-2.8,1.2l-96.4,96.4c-0.8,0.8-1.2,1.6-1.2,2.8  c0,1.2,0.4,2,1.2,2.8c1.6,1.6,4,1.6,5.6,0l96.4-96.4c0.8-0.8,1.2-1.6,1.2-2.8s-0.4-2-1.2-2.8l0,0  C214.476,112.401,213.676,112.001,212.476,112.001z"/>
<path d="M486.076,508.001c-1.2,0-2-0.4-2.8-1.2l-78.4-77.2c-18,9.2-41.6,7.2-58.4-5.2c-0.4,0-0.8-0.4-0.8-0.8l-211.6-214  c-1.6-1.6-1.6-4,0-5.6s4-1.6,5.6,0l211.2,213.6l0,0c15.2,11.6,36.8,13.2,52.8,3.6c1.6-0.8,3.6-0.8,4.8,0.8l77.6,76.4l11.6-12  l-77.6-78c-1.2-1.2-1.6-3.2-0.8-4.8c10.4-17.6,4.4-40-6-53.2c0,0,0,0,0-0.4l-211.2-210c-1.6-1.6-1.6-4,0-5.6s4-1.6,5.6,0  l211.6,210.4c0.4,0.4,0.4,0.8,0.8,1.2c10.8,14.8,17.6,38.8,7.6,58.8l78.4,78.8c1.6,1.6,1.6,4,0,5.6l-17.2,17.6  C488.076,507.601,486.876,508.001,486.076,508.001L486.076,508.001z"/>
<path d="M405.276,428.001c-0.8,0-2-0.4-2.8-1.2c-1.6-1.6-1.6-4-0.4-5.6l16.8-18.8c1.6-1.6,4-1.6,5.6-0.4c1.6,1.6,1.6,4,0.4,5.6  l-16.8,18.8C407.676,427.601,406.476,428.001,405.276,428.001z"/>
<g>
</g>
<g>
</g>
<g>
</g>
<g>
</g>
<g>
</g>
<g>
</g>
<g>
</g>
<g>
</g>
<g>
</g>
<g>
</g>
<g>
</g>
<g>
</g>
<g>
</g>
<g>
</g>
<g>
</g>
</svg>
