<svg xmlns="http://www.w3.org/2000/svg" viewBox="0 0 96.05 100"><defs><style>.cls-1{fill:#ffb676;}.cls-2{fill:#ff9576;}.cls-3{opacity:0.12;}.cls-4{fill:#ad4f33;}.cls-5{fill:#e36e4a;}.cls-6{opacity:0.25;}.cls-7{fill:#7a3824;}.cls-8{opacity:0.48;}.cls-13,.cls-9{fill:#fff;}.cls-10{fill:#3ce1ff;}.cls-11{opacity:0.35;}.cls-12{fill:#066d80;}.cls-13{opacity:0.51;}</style></defs><g id="Layer_2" data-name="Layer 2"><g id="Layer_1-2" data-name="Layer 1"><path class="cls-1" d="M53,75.86C40.61,83.44,24.49,82,14.34,71.48A29.65,29.65,0,0,1,6.14,53.1a43,43,0,0,1,.5-5.53,30.09,30.09,0,0,1,3.51-10.2c3.62-6.13,10-9.91,16.61-11.95C40.6,21.15,61.39,21.16,67,37.6,71.78,51.59,65.44,68.19,53,75.86Z"/><path class="cls-2" d="M71.25,35.59c-6.42-18.8-30.18-18.81-46-13.93C17.64,24,10.4,28.32,6.27,35.32A34.5,34.5,0,0,0,2.26,47a46.24,46.24,0,0,0-.57,6.3,33.75,33.75,0,0,0,9.37,21c11.6,12.06,30,13.68,44.13,5C69.46,70.54,76.71,51.58,71.25,35.59Zm-22,43.85A32.28,32.28,0,0,1,10.16,68.69a28.87,28.87,0,0,1-5.29-16c0-.75,0-1.5.08-2.25.1-1.48.26-2.94.47-4.34A25.81,25.81,0,0,1,10.17,34c5.07-6.61,13.24-9.9,21.2-11.46,8.23-1.62,17.29-2,25.07,1.62,7.43,3.47,11.88,10.54,13,18.51C71.5,57.7,63.38,73.44,49.25,79.44Z"/><path class="cls-3" d="M24.78,25.61a31.81,31.81,0,0,0-4.63,50.51C11,71,4.27,60.46,5.49,50,7.36,34.06,15.09,29.65,24.78,25.61Z"/><path class="cls-4" d="M74,41.35c-1.26-9.1-6.34-17.19-14.84-21.15-8.88-4.14-19.24-3.7-28.65-1.86-9.09,1.79-18.43,5.55-24.23,13.11A29.51,29.51,0,0,0,.86,45.28c-.24,1.6-.42,3.27-.53,5C.26,51.1.23,52,.24,52.82a26.19,26.19,0,0,0,1.62,9.47,36.08,36.08,0,0,0,4.42,8.82A36.89,36.89,0,0,0,51,83.4C67.11,76.55,76.39,58.56,74,41.35Zm-18.82,38c-14.11,8.67-32.53,7-44.13-5a33.75,33.75,0,0,1-9.37-21A46.24,46.24,0,0,1,2.26,47a34.5,34.5,0,0,1,4-11.67c4.13-7,11.37-11.32,19-13.66,15.82-4.88,39.58-4.87,46,13.93C76.71,51.58,69.46,70.54,55.19,79.31Z"/><path class="cls-4" d="M56.44,24.14c-7.78-3.62-16.84-3.24-25.07-1.62-8,1.56-16.13,4.85-21.2,11.46A25.81,25.81,0,0,0,5.42,46.09C5.21,47.49,5.05,49,5,50.43c-.06.75-.08,1.5-.08,2.25a28.87,28.87,0,0,0,5.29,16A32.28,32.28,0,0,0,49.25,79.44c14.13-6,22.25-21.74,20.17-36.79C68.32,34.68,63.87,27.61,56.44,24.14ZM53,75.86C40.61,83.44,24.49,82,14.34,71.48A29.65,29.65,0,0,1,6.14,53.1a43,43,0,0,1,.5-5.53,29.89,29.89,0,0,1,3.52-10.2c3.61-6.13,9.94-9.9,16.59-11.95C40.6,21.15,61.39,21.16,67,37.6,71.78,51.59,65.44,68.19,53,75.86Z"/><path class="cls-5" d="M42.79,35.74a12.43,12.43,0,0,0-16.33,6.42c-2.95,6.45,0,14.89,6.21,18.24a14.26,14.26,0,0,0,1.28.69c6.29,3,14-.3,15.83-7.12C51.45,47.63,49.26,38.6,42.79,35.74Z"/><path class="cls-6" d="M33.62,37.07a6.93,6.93,0,0,0-3.73,4.66,14.56,14.56,0,0,0-.05,6.13A17.33,17.33,0,0,0,32,54.21a9.15,9.15,0,0,0,5.14,4.12,8.61,8.61,0,0,0,9.06-3.72,12.26,12.26,0,0,0,1.23-10.06A21.9,21.9,0,0,0,42,35.73c4.45,1.81,6.66,6.64,7.58,11.35.65,3.29.88,6.94-.9,9.78a9.84,9.84,0,0,1-5,3.82,13.28,13.28,0,0,1-17.84-14C26.38,42.19,29.5,39,33.62,37.07Z"/><path class="cls-7" d="M42.79,35.74a12.43,12.43,0,0,0-16.33,6.42c-2.95,6.45,0,14.89,6.21,18.24a14.26,14.26,0,0,0,1.28.69c6.29,3,14-.3,15.83-7.12C51.45,47.63,49.26,38.6,42.79,35.74Zm-16,14a12.23,12.23,0,0,1,.38-4.78c1.6-5.78,7.14-9.76,13.18-8.51,6.55,1.35,9.51,8.31,9,14.5a11.17,11.17,0,0,1-3.66,7.46,10.91,10.91,0,0,1-3.48,1.85C36.65,62,30.74,59,29.49,53.12c0,0,0,0,0,0A8.79,8.79,0,0,0,33,59.44,13.23,13.23,0,0,1,26.81,49.72Z"/><g class="cls-8"><path class="cls-9" d="M38.12,39.9a2,2,0,0,1,1.92-1A2,2,0,1,1,39.73,43a2.07,2.07,0,0,1-1.49-1.2A2.27,2.27,0,0,1,38.12,39.9Z"/><path class="cls-9" d="M41,48.53a.6.6,0,0,0,.67.57c.8,0,1.42-1.37.59-1.77S41,47.88,41,48.53Z"/></g><path class="cls-10" d="M56.51,49.7a9.67,9.67,0,0,1-2.64-.45,5.6,5.6,0,0,1-2.46-1.53A5.7,5.7,0,0,1,50,42.91a7.42,7.42,0,0,1,5.08-5.68,11.68,11.68,0,0,1,8.18.54,13.55,13.55,0,0,0,1.59-2.63,11.83,11.83,0,0,1,2.86-4.33c2.38-1.9,5.3-.79,7.56.88.36.26.7.54,1,.82,1.4,1.24,2.81,2.75,4.65,3.2A3.38,3.38,0,0,0,84,35.1a4.25,4.25,0,0,0,1.1-2c.15-.52.27-1,.41-1.55a6.76,6.76,0,0,1,1.2-2.71,5.19,5.19,0,0,1,9.09,1.92,1.72,1.72,0,0,1,.07.21c.06.21.1.41.14.62l-.21-.36A5,5,0,0,0,93.2,29a3.52,3.52,0,0,0-4.49,2.15C88.18,32.4,88,33.79,87.38,35a5.7,5.7,0,0,1-2.57,2.61,5.93,5.93,0,0,1-3.56.59,7.71,7.71,0,0,1-3.64-1.92,14.69,14.69,0,0,0-4-2.82,3.71,3.71,0,0,0-4.5,1.45c-1,1.38-1.67,3.39-2.81,4.73-.1.56-.22,1.13-.36,1.69a12.4,12.4,0,0,1-3.47,6.36A8.64,8.64,0,0,1,56.51,49.7Z"/><path class="cls-11" d="M52.43,48.23a8.09,8.09,0,0,1-1-.51A5.7,5.7,0,0,1,50,42.91a7.42,7.42,0,0,1,5.08-5.68,11.68,11.68,0,0,1,8.18.54,13.55,13.55,0,0,0,1.59-2.63,11.83,11.83,0,0,1,2.86-4.33c2.38-1.9,5.3-.79,7.56.88a4,4,0,0,1,.21.82,4.69,4.69,0,0,0-4.89-1.28,7.68,7.68,0,0,0-4.09,3.3,23,23,0,0,0-2.2,4.87,10.9,10.9,0,0,0-6.84-1.34,7.54,7.54,0,0,0-5.53,3.69A6,6,0,0,0,52.43,48.23Z"/><path class="cls-11" d="M85.78,32.71a3.87,3.87,0,0,1-.23-1.19,6.76,6.76,0,0,1,1.2-2.71,5.19,5.19,0,0,1,9.09,1.92,1.19,1.19,0,0,1-.08.2,5.86,5.86,0,0,0-3.09-3.1,4.66,4.66,0,0,0-4.34,1A9.36,9.36,0,0,0,85.78,32.71Z"/><path class="cls-6" d="M56.51,49.7a5.79,5.79,0,0,1-.61-.47,13.22,13.22,0,0,0,10-7.93.21.21,0,0,1,0,.06,12.4,12.4,0,0,1-3.47,6.36A8.64,8.64,0,0,1,56.51,49.7Z"/><path class="cls-12" d="M62.48,47.72c2.22-1.95,3.32-5.1,3.83-8,1.14-1.34,1.78-3.35,2.81-4.73a3.71,3.71,0,0,1,4.5-1.45,14.69,14.69,0,0,1,4,2.82,7.71,7.71,0,0,0,3.64,1.92,5.93,5.93,0,0,0,3.56-.59A5.7,5.7,0,0,0,87.38,35c.59-1.24.8-2.63,1.33-3.89A3.52,3.52,0,0,1,93.2,29a5,5,0,0,1,2.64,2.21l.21.36c0-.21-.08-.41-.14-.62a5.45,5.45,0,0,0-5.59-4.07,5.39,5.39,0,0,0-3.57,1.94c-1,1.21-1.18,2.78-1.61,4.26a4.25,4.25,0,0,1-1.1,2,3.38,3.38,0,0,1-3.11.61c-1.84-.45-3.25-2-4.65-3.2-2.34-2.06-5.83-3.9-8.58-1.7a11.83,11.83,0,0,0-2.86,4.33,13.55,13.55,0,0,1-1.59,2.63,11.68,11.68,0,0,0-8.18-.54A7.42,7.42,0,0,0,50,42.91a5.61,5.61,0,0,0,3.88,6.34A9.11,9.11,0,0,0,62.48,47.72ZM51,45.66c0-.15-.08-.31-.11-.47a5.7,5.7,0,0,1,.07-2.1A6.11,6.11,0,0,1,52.76,40s0,0,0,0a5.29,5.29,0,0,0-1.93,2.59A6.85,6.85,0,0,1,54.88,38a12.12,12.12,0,0,1,8.25-.09l.31.1.11-.12a29.57,29.57,0,0,0,2.63-4.4c.85-1.49,2-2.83,3.71-3.09s3.62.67,5.06,1.74c2.45,1.83,5,5.28,8.4,4,3-1.07,2.16-5.26,4.1-7.32a4.85,4.85,0,0,1,5.11-1.32,5.31,5.31,0,0,1,3,2.91A4.38,4.38,0,0,0,91,28.58c-3,.72-2.81,4.39-4.08,6.64a5.54,5.54,0,0,1-3.65,2.65,5.6,5.6,0,0,1-4.7-1.2c-2.24-1.67-4.77-4.92-7.87-3.6-1.52.65-2.43,2.25-3.18,3.67-.32.61-.67,1.27-1.07,1.89q-.14.21-.27.39c-.09.35-.17.69-.25,1a15.14,15.14,0,0,1-2.43,6.09,8.15,8.15,0,0,1-8,2.9A5.57,5.57,0,0,1,51,45.66Z"/><path class="cls-13" d="M54.74,45.21c.79.45,1.36,1.54.34,2A1.37,1.37,0,0,1,53.73,47a1.27,1.27,0,0,1-.44-1.48A1,1,0,0,1,54.74,45.21Z"/><path class="cls-13" d="M59.59,43.93a1.75,1.75,0,0,0-.67.43.6.6,0,0,0-.05.75c.23.26.66.16,1,0a9.85,9.85,0,0,0,3.27-2.3.72.72,0,0,0,.24-.45c0-1.07-1.19.27-1.31.36A13.62,13.62,0,0,1,59.59,43.93Z"/><path class="cls-10" d="M16.36,15.93a5.12,5.12,0,0,1,.21,1.33,2.92,2.92,0,0,1-.35,1.41,2.85,2.85,0,0,1-2.06,1.43,3.72,3.72,0,0,1-3.49-1.52,5.84,5.84,0,0,1-1-4,7.37,7.37,0,0,0-1.5-.34,6,6,0,0,1-2.51-.67c-1.27-.84-1.2-2.4-.77-3.74.07-.21.15-.41.23-.61a5.89,5.89,0,0,0,.79-2.71,1.69,1.69,0,0,0-.77-1.38A2.22,2.22,0,0,0,4,4.94c-.27,0-.54,0-.8.06a3.54,3.54,0,0,1-1.48-.15A2.69,2.69,0,0,1,.21,3.46a2.7,2.7,0,0,1,1-3.23L1.27.16A1.75,1.75,0,0,1,1.54,0L1.4.16a2.4,2.4,0,0,0-.63,1.6A1.75,1.75,0,0,0,2.49,3.55c.68.06,1.37-.06,2.06,0a2.88,2.88,0,0,1,1.64.81A3,3,0,0,1,7,6a3.85,3.85,0,0,1-.34,2A7.28,7.28,0,0,0,6,10.35a1.85,1.85,0,0,0,1.39,1.91c.82.27,1.87.26,2.69.59.28,0,.57-.07.86-.09a6.19,6.19,0,0,1,3.57.65A4.26,4.26,0,0,1,16.36,15.93Z"/><path class="cls-11" d="M16.3,18.1a3.72,3.72,0,0,1-.08.57,2.85,2.85,0,0,1-2.06,1.43,3.72,3.72,0,0,1-3.49-1.52,5.84,5.84,0,0,1-1-4,7.37,7.37,0,0,0-1.5-.34,6,6,0,0,1-2.51-.67c-1.27-.84-1.2-2.4-.77-3.74a1.93,1.93,0,0,1,.36-.22,2.33,2.33,0,0,0,.16,2.52,3.84,3.84,0,0,0,2.21,1.42,11.29,11.29,0,0,0,2.66.28,5.43,5.43,0,0,0,.44,3.46,3.76,3.76,0,0,0,2.62,2.05A3,3,0,0,0,16.3,18.1Z"/><path class="cls-11" d="M3.69,4.7a2.21,2.21,0,0,1-.52.3,3.54,3.54,0,0,1-1.48-.15A2.69,2.69,0,0,1,.21,3.46a2.7,2.7,0,0,1,1-3.23h.11a2.89,2.89,0,0,0-1,2,2.34,2.34,0,0,0,1.17,1.9A4.77,4.77,0,0,0,3.69,4.7Z"/><path class="cls-6" d="M16.36,15.93a2.32,2.32,0,0,1-.13.37,6.59,6.59,0,0,0-5.34-3.52l0,0a6.19,6.19,0,0,1,3.57.65A4.26,4.26,0,0,1,16.36,15.93Z"/><path class="cls-12" d="M14.49,13.41a6.91,6.91,0,0,0-4.43-.56c-.82-.33-1.87-.32-2.69-.59A1.85,1.85,0,0,1,6,10.35,7.28,7.28,0,0,1,6.69,8,3.85,3.85,0,0,0,7,6a3,3,0,0,0-.84-1.6,2.88,2.88,0,0,0-1.64-.81c-.69-.08-1.38,0-2.06,0A1.75,1.75,0,0,1,.77,1.76,2.4,2.4,0,0,1,1.4.16L1.54,0a1.75,1.75,0,0,0-.27.16A2.73,2.73,0,0,0,.21,3.46,2.69,2.69,0,0,0,1.69,4.85,5.63,5.63,0,0,0,4,4.94a2.22,2.22,0,0,1,1.14.21,1.69,1.69,0,0,1,.77,1.38,5.89,5.89,0,0,1-.79,2.71c-.61,1.44-.93,3.38.54,4.35a6,6,0,0,0,2.51.67,7.37,7.37,0,0,1,1.5.34,5.84,5.84,0,0,0,1,4,3.72,3.72,0,0,0,3.49,1.52,2.83,2.83,0,0,0,2.41-2.84A4.58,4.58,0,0,0,14.49,13.41Zm.82,5.79-.2.12a2.75,2.75,0,0,1-1,.3,3,3,0,0,1-1.77-.38s0,0,0,0a2.58,2.58,0,0,0,1.53.51,3.41,3.41,0,0,1-2.79-1.22,6,6,0,0,1-1.33-3.9,1,1,0,0,1,0-.17l-.07,0a14.62,14.62,0,0,0-2.51-.55,2.71,2.71,0,0,1-2-1.28,3.6,3.6,0,0,1,0-2.68c.48-1.45,1.72-3.2.6-4.63-1-1.25-2.84-.2-4.12-.79A2.42,2.42,0,0,1,.18,2.29,2.69,2.69,0,0,1,1.09.4,2.21,2.21,0,0,0,.91,2.86c.81,1.3,2.53.64,3.8.89A2.81,2.81,0,0,1,6.54,5.07a2.85,2.85,0,0,1,.17,2.42c-.45,1.33-1.59,3-.48,4.31a3.83,3.83,0,0,0,2.25.93c.33.06.7.12,1.06.21l.23.07.53,0a7.59,7.59,0,0,1,3.28.2,4.06,4.06,0,0,1,2.62,3.33A2.78,2.78,0,0,1,15.31,19.2Z"/><path class="cls-13" d="M14.53,17.5a.45.45,0,0,0,.37.61.63.63,0,0,0,.63-.44A.68.68,0,0,0,15.4,17a.57.57,0,0,0-.65-.12.46.46,0,0,0-.2.6Z"/><path class="cls-13" d="M13.14,15.38a1,1,0,0,0,.31.25.31.31,0,0,0,.36-.1c.09-.15,0-.34-.14-.47a5,5,0,0,0-1.61-1.19.32.32,0,0,0-.25,0c-.5.18.31.52.38.57A6.31,6.31,0,0,1,13.14,15.38Z"/><path class="cls-10" d="M13.07,82.93a4,4,0,0,1,.93-.6,2.32,2.32,0,0,1,1.17-.23A2.4,2.4,0,0,1,17,83.16,3.05,3.05,0,0,1,17,86.3a4.81,4.81,0,0,1-2.63,2.14,6.34,6.34,0,0,0,.25,1.24A4.82,4.82,0,0,1,15,91.79c-.18,1.24-1.38,1.72-2.54,1.85l-.53,0A5,5,0,0,0,9.59,94a1.41,1.41,0,0,0-.77,1.06,1.69,1.69,0,0,0,.24.92,6.45,6.45,0,0,0,.31.58,2.85,2.85,0,0,1,.39,1.16,2.23,2.23,0,0,1-.53,1.59,2.25,2.25,0,0,1-2.76.37l-.08,0a1.7,1.7,0,0,1-.22-.15l.17,0a2,2,0,0,0,1.42-.07,1.45,1.45,0,0,0,.75-1.91C8.32,97,8,96.56,7.83,96a2.3,2.3,0,0,1,0-1.51,2.39,2.39,0,0,1,.91-1.17,3.1,3.1,0,0,1,1.64-.44,6.11,6.11,0,0,0,2-.26,1.55,1.55,0,0,0,1-1.7c-.08-.71-.45-1.5-.48-2.23a6.11,6.11,0,0,1-.36-.61,5,5,0,0,1-.73-2.9A3.55,3.55,0,0,1,13.07,82.93Z"/><path class="cls-11" d="M14.72,82.24a3.88,3.88,0,0,1,.45-.14A2.4,2.4,0,0,1,17,83.16,3.05,3.05,0,0,1,17,86.3a4.81,4.81,0,0,1-2.63,2.14,6.34,6.34,0,0,0,.25,1.24A4.82,4.82,0,0,1,15,91.79c-.18,1.24-1.38,1.72-2.54,1.85a1.81,1.81,0,0,1-.29-.19,1.93,1.93,0,0,0,1.84-1,3.2,3.2,0,0,0,.32-2.15,9.34,9.34,0,0,0-.7-2.09,4.48,4.48,0,0,0,2.45-1.51,3.13,3.13,0,0,0,.64-2.66A2.46,2.46,0,0,0,14.72,82.24Z"/><path class="cls-11" d="M9,96.28a1.61,1.61,0,0,1,.41.29,2.85,2.85,0,0,1,.39,1.16,2.23,2.23,0,0,1-.53,1.59,2.25,2.25,0,0,1-2.76.37l0-.08a2.4,2.4,0,0,0,1.8.08,2,2,0,0,0,1-1.53A3.93,3.93,0,0,0,9,96.28Z"/><path class="cls-6" d="M13.07,82.93l.32,0a5.44,5.44,0,0,0-.81,5.2h0a5,5,0,0,1-.73-2.9A3.55,3.55,0,0,1,13.07,82.93Z"/><path class="cls-12" d="M11.82,85.2a5.64,5.64,0,0,0,1.09,3.51c0,.73.4,1.52.48,2.23a1.55,1.55,0,0,1-1,1.7,6.11,6.11,0,0,1-2,.26,3.1,3.1,0,0,0-1.64.44,2.39,2.39,0,0,0-.91,1.17,2.3,2.3,0,0,0,0,1.51c.17.54.49,1,.68,1.55a1.45,1.45,0,0,1-.75,1.91,2,2,0,0,1-1.42.07l-.17,0a1.7,1.7,0,0,0,.22.15,2.26,2.26,0,0,0,2.84-.33,2.23,2.23,0,0,0,.53-1.59A4.69,4.69,0,0,0,9.06,96a1.69,1.69,0,0,1-.24-.92A1.41,1.41,0,0,1,9.59,94a5,5,0,0,1,2.31-.33c1.28,0,2.86-.45,3.07-1.89a4.82,4.82,0,0,0-.35-2.11,6.34,6.34,0,0,1-.25-1.24A4.81,4.81,0,0,0,17,86.3,3.05,3.05,0,0,0,17,83.16,2.32,2.32,0,0,0,14,82.33,3.75,3.75,0,0,0,11.82,85.2ZM16,82.61l.17.11a2.36,2.36,0,0,1,.57.65,2.67,2.67,0,0,1,.32,1.46s0,0,0,0a2.2,2.2,0,0,0-.14-1.32A2.8,2.8,0,0,1,17,86a5,5,0,0,1-2.47,2.34l-.12.06v.06a11.71,11.71,0,0,0,.44,2.07,2.26,2.26,0,0,1-.26,2,2.94,2.94,0,0,1-2,.88c-1.26.14-3-.19-3.68,1.13-.61,1.17.82,2.2.81,3.37a2,2,0,0,1-1.18,1.83,2.21,2.21,0,0,1-1.73,0A1.81,1.81,0,0,0,8.65,99c.7-1.06-.38-2.12-.63-3.16A2.26,2.26,0,0,1,8.39,94a2.34,2.34,0,0,1,1.75-1c1.15-.12,2.83.16,3.4-1.11a3.06,3.06,0,0,0-.07-2c-.07-.28-.15-.57-.2-.88l0-.19L13,88.5a6.21,6.21,0,0,1-1-2.53,3.35,3.35,0,0,1,1.6-3.11A2.3,2.3,0,0,1,16,82.61Z"/><path class="cls-13" d="M14.87,83.78a.39.39,0,0,0,.34-.49.53.53,0,0,0-.55-.33.57.57,0,0,0-.46.33.46.46,0,0,0,.13.53.4.4,0,0,0,.53,0Z"/><path class="cls-13" d="M13.75,85.55a.78.78,0,0,0,.09-.33.25.25,0,0,0-.2-.23c-.14,0-.24.13-.3.26A4.1,4.1,0,0,0,13,86.87a.28.28,0,0,0,.06.2c.31.31.28-.42.29-.48A5.49,5.49,0,0,1,13.75,85.55Z"/></g></g></svg>