<svg xmlns="http://www.w3.org/2000/svg" viewBox="0 0 88.28 100.21"><defs><style>.cls-1{fill:#3ce1ff;}.cls-2{fill:#3fff8d;}.cls-3{opacity:0.25;}.cls-4{opacity:0.4;}.cls-5{fill:#fff;}.cls-6{fill:#066d80;}</style></defs><g id="Layer_2" data-name="Layer 2"><g id="Layer_1-2" data-name="Layer 1"><path class="cls-1" d="M88.27,29.78l-.07-.08a1.85,1.85,0,0,0-.87-.44,1.36,1.36,0,0,0-.35,0,.74.74,0,0,0-.21.22,10.39,10.39,0,0,0-.7,2,4.56,4.56,0,0,1-3.66,2.62,4.39,4.39,0,0,1-4-2.13,15.22,15.22,0,0,1-.78-2.1.37.37,0,0,0,0-.11l-.09-.17a2.74,2.74,0,0,0-.5,0,3.08,3.08,0,0,0-.94.19l-.08,0c0,.11,0,.22,0,.32a5.57,5.57,0,0,0,2,4.17,5.9,5.9,0,0,0,2,1.07A12.61,12.61,0,0,1,76.78,40a8.22,8.22,0,0,1-3.41,1.81,7.35,7.35,0,0,1-2,.21,9.26,9.26,0,0,0-7.5-4.36l-.59,0a76.75,76.75,0,0,0,.18-9.1c-.11-2.93-.4-5.85-.8-8.76A44.67,44.67,0,0,0,61,11.55C60,8.81,58.32,6,55.28,5.1A3.53,3.53,0,0,0,51.85,6h0a10.41,10.41,0,0,0-1.48-2.66A8.48,8.48,0,0,0,46.46.48,4.49,4.49,0,0,0,44.14,0a4.49,4.49,0,0,0-2.32.48,8.48,8.48,0,0,0-3.91,2.9A10.41,10.41,0,0,0,36.43,6h0a3.38,3.38,0,0,0-3.29-1c-3.13.8-4.87,3.7-5.83,6.49a44.67,44.67,0,0,0-1.67,8.2c-.4,2.91-.69,5.83-.8,8.76a76.75,76.75,0,0,0,.18,9.1l-.59,0A9.26,9.26,0,0,0,16.93,42a7.35,7.35,0,0,1-2-.21A8.22,8.22,0,0,1,11.5,40a12.61,12.61,0,0,1-3.27-4.63,5.9,5.9,0,0,0,2-1.07,5.57,5.57,0,0,0,2-4.17c0-.1,0-.21,0-.32l-.08,0a3.08,3.08,0,0,0-.94-.19,2.74,2.74,0,0,0-.5,0l-.09.17a.37.37,0,0,0,0,.11A15.22,15.22,0,0,1,9.87,32a4.39,4.39,0,0,1-4,2.13,4.56,4.56,0,0,1-3.66-2.62,10.39,10.39,0,0,0-.7-2,.74.74,0,0,0-.21-.22,1.36,1.36,0,0,0-.35,0,1.85,1.85,0,0,0-.87.44L0,29.78c0,.1,0,.2,0,.3a5.6,5.6,0,0,0,2,4.19,5.79,5.79,0,0,0,3.09,1.27h0a.36.36,0,0,0,0,.1A11.93,11.93,0,0,0,9,42.3a12.25,12.25,0,0,0,6.86,3,7,7,0,0,0,.67,3.78,8.38,8.38,0,0,0,4.22,3.74,17.8,17.8,0,0,0,6.08,1.26,15.41,15.41,0,0,0,7.58,6.84,20.54,20.54,0,0,0,3.74,1.25c.85,4.06,1.69,8.12,2.18,12.25a66.87,66.87,0,0,1,.23,14.83,42.64,42.64,0,0,1-.66,4.37c-.14.72-.31,1.44-.47,2.15H34c-1.78,0-3.58,0-5.36,0l-.47,0c0,.13-.05.26-.07.39a6.71,6.71,0,0,0,.33,3.3,3.79,3.79,0,0,0,.18.42h.43c1.66,0,3.32,0,5,0,2.69,0,5.39,0,8.08,0h4.08c2.69,0,5.38,0,8.08,0,1.64,0,3.3,0,5,0h.43a3.79,3.79,0,0,0,.18-.42,6.71,6.71,0,0,0,.33-3.3c0-.13,0-.26-.07-.39l-.47,0c-1.79-.06-3.58,0-5.36,0H48.83c-.16-.71-.33-1.43-.47-2.15a42.64,42.64,0,0,1-.66-4.37,66.87,66.87,0,0,1,.23-14.83c.49-4.13,1.33-8.19,2.18-12.25a20.54,20.54,0,0,0,3.74-1.25,15.41,15.41,0,0,0,7.58-6.84,17.8,17.8,0,0,0,6.08-1.26,8.38,8.38,0,0,0,4.22-3.74,7,7,0,0,0,.67-3.78,12.25,12.25,0,0,0,6.86-3,11.93,11.93,0,0,0,3.87-6.66.36.36,0,0,0,0-.1h0a5.79,5.79,0,0,0,3.09-1.27,5.6,5.6,0,0,0,2-4.19C88.28,30,88.28,29.88,88.27,29.78Z"/><path class="cls-2" d="M63.47,54.09l-.83.1c-.4,0-.81.07-1.21.09a15.38,15.38,0,0,1-7.58,6.85,20.23,20.23,0,0,1-2.5.92l-.49.14-.75.19c-.33,1.6-.67,3.2-1,4.81l-.38.06c.33-1.61.7-3.22,1.11-4.81a24.44,24.44,0,0,1-5.72.54,24.44,24.44,0,0,1-5.72-.54c.45,1.74.84,3.5,1.2,5.26l-.38,0c-.33-1.77-.7-3.53-1.07-5.3-.38-.09-.76-.19-1.13-.3a19.17,19.17,0,0,1-1.85-.63l-.76-.32a15.38,15.38,0,0,1-7.58-6.85L26,54.22c.11-.24.22-.47.34-.7h.36c1.59.09,3.19.08,4.78.13q2.09.06,4.17.09,1.48,0,3,0c1.85,0,3.69,0,5.54-.09s3.69.09,5.54.09q1.49,0,3,0,2.09,0,4.17-.09c1.59-.05,3.19,0,4.78-.13h.18l.59,0,.85-.07A5.4,5.4,0,0,1,63.47,54.09Z"/><path class="cls-2" d="M59.83,99.74a3.79,3.79,0,0,1-.18.42h-.43c-1.66,0-3.32,0-5,0-2.7,0-5.39,0-8.08,0H42.1c-2.69,0-5.39,0-8.08,0-1.64,0-3.3,0-5,0h-.43a3.79,3.79,0,0,1-.18-.42,6.71,6.71,0,0,1-.33-3.3c0-.13,0-.26.07-.4h.47c1.78-.06,3.58,0,5.36,0h5.43c.16-.71.33-1.43.47-2.15.12-.56.22-1.11.31-1.68l.58-.11A28,28,0,0,1,40,96h8.2a31.17,31.17,0,0,1-.86-4.57h.56c.12.81.25,1.62.42,2.42s.31,1.44.47,2.15h5.43c1.78,0,3.57,0,5.36,0h.47c0,.14,0,.27.07.4A6.71,6.71,0,0,1,59.83,99.74Z"/><g class="cls-3"><path d="M14.57,42.16a1.66,1.66,0,0,1,.13,2.63c.46.22.7.46,1.16.67A8.43,8.43,0,0,1,17,42.76,5.7,5.7,0,0,1,14.57,42.16Z"/><path d="M6,38A1.13,1.13,0,0,1,7,36.66,3.13,3.13,0,0,1,8.72,37c-.19-.53-.52-1-.71-1.53a11.32,11.32,0,0,0-2.6.14C5.64,36.25,5.78,37.3,6,38Z"/><path d="M49.11,3l-.23-.13a8.87,8.87,0,0,0-7.72-.37A9,9,0,0,0,37.25,5.8a8.44,8.44,0,0,0-1.17,2.78,2.27,2.27,0,0,0-.25-.18,4.41,4.41,0,0,0-5.11.73,10.15,10.15,0,0,0-2.66,5.14,41.33,41.33,0,0,0,1.55,24.48l.18.47h0c-.66-.24-1.34-.47-2-.67a17,17,0,0,0-3.63-.65v0l.32,0,.59,0a76.79,76.79,0,0,1-.18-9.1c.11-2.94.4-5.86.8-8.76a45,45,0,0,1,1.67-8.21A10.55,10.55,0,0,1,31.43,6a4.09,4.09,0,0,1,5,.27h0a10.64,10.64,0,0,1,1.48-2.67A8.54,8.54,0,0,1,41.82.68,4.59,4.59,0,0,1,44.14.21a4.59,4.59,0,0,1,2.32.47,8.4,8.4,0,0,1,1.14.51A6.57,6.57,0,0,1,49.11,3Z"/><path d="M39.14,3l.22-.13A8.78,8.78,0,0,1,51,5.8a8.23,8.23,0,0,1,1.17,2.78,2.27,2.27,0,0,1,.25-.18,4.43,4.43,0,0,1,5.12.73,10.3,10.3,0,0,1,2.66,5.14,41.41,41.41,0,0,1-1.56,24.48l-.17.47h0c.66-.24,1.34-.47,2-.67a17.1,17.1,0,0,1,3.63-.65v0l-.32,0-.59,0a76.79,76.79,0,0,0,.18-9.1c-.11-2.94-.4-5.86-.8-8.76a45,45,0,0,0-1.67-8.21A10.5,10.5,0,0,0,56.81,6a4.09,4.09,0,0,0-5,.27h0a10.64,10.64,0,0,0-1.48-2.67,8.57,8.57,0,0,0-3.9-2.9A4.65,4.65,0,0,0,44.1.21a4.59,4.59,0,0,0-2.32.47,8.4,8.4,0,0,0-1.14.51A6.53,6.53,0,0,0,39.14,3Z"/><path d="M57.38,39.08a1,1,0,0,1-.08.41l-.09,0h0a18.39,18.39,0,0,0-3.41,2.4h0c-5.27-3.69-14.08-4-19.36,0h0a18.41,18.41,0,0,0-3.12-2.22c0-.18-.1-.35-.13-.52l0,0a40.19,40.19,0,0,1,11.69-2.4,5.86,5.86,0,0,1,.59,0h1.93a40.15,40.15,0,0,1,11.81,2.45Z"/><path d="M62.64,54.19c-.4,0-.81.07-1.21.09a15.38,15.38,0,0,1-7.58,6.85,21.25,21.25,0,0,1-3,1.06l-.6.08a5.25,5.25,0,0,0,.94-.75,4.11,4.11,0,0,0,1-1.66,3.15,3.15,0,0,0-.54-3c-1-1.09-2.57-1.22-4-1.27-3.39-.13-6.86-.24-10.09.77a5.81,5.81,0,0,0-2.1,1.07,2.58,2.58,0,0,0-1,2.09A1.7,1.7,0,0,0,36,61.11l-.12,0-.73.29-.76-.32a15.38,15.38,0,0,1-7.58-6.85c-.76-.05-1.51-.11-2.26-.22a5.07,5.07,0,0,1,.11-.68l.15,0c.55.06,1.1.1,1.65.13h.18c1.59.09,3.19.08,4.78.13q2.09.06,4.17.09,1.48,0,3,0c1.85,0,3.69,0,5.54-.09s3.69.09,5.54.09q1.49,0,3,0,2.09,0,4.17-.09c1.59-.05,3.19,0,4.78-.13h.18l.59,0A3,3,0,0,1,62.64,54.19Z"/><path d="M51.19,62.05l-.48.14-.75.19c-.47,2.25-.94,4.51-1.35,6.78a5.76,5.76,0,0,0-.48.88v-.41a8.39,8.39,0,0,0-.45-2.95,3.21,3.21,0,0,0-2.46-2.12,3.84,3.84,0,0,0-3.28,1.9,9.72,9.72,0,0,0-1.8,4.8h0c0,.24,0,.49,0,.74l-.31-.35c-.49-3.11-1.13-6.19-1.77-9.28-.38-.09-.76-.19-1.13-.3a4.25,4.25,0,0,1,.37-.47l.62.15.23.05a31.2,31.2,0,0,0,5.88.61,31.28,31.28,0,0,0,5.88-.61l.22-.05c.27-.07.55-.13.82-.21l0,0A2.35,2.35,0,0,1,51.19,62.05Z"/><path d="M48.64,96c-.43-1.81-.87-3.7-1.29-5.51A3.19,3.19,0,1,1,41,90.09c-.3,1.81-.75,3.76-1.06,5.57,0,0-.08.34-.08.37A61,61,0,0,0,48.64,96Z"/><path d="M59.92,96.39a7.72,7.72,0,0,1-.45,3.59c-1.59.06-3-.1-4.64,0a2.77,2.77,0,0,0-.19-3.65C56.33,96.28,58.22,96.4,59.92,96.39Z"/><path d="M32.88,96.33a2.09,2.09,0,0,0-1,1.65,2,2,0,0,0,.83,1.75c-1.28.1-2.63.11-3.91.21-.1-1.09-.22-2.32-.32-3.4A29.61,29.61,0,0,0,32.88,96.33Z"/><path d="M75.29,44.47a1.37,1.37,0,0,1-.63-2.62,6.84,6.84,0,0,1-3.29.56c.34,1,.63,1.85,1,2.82A5.59,5.59,0,0,0,75.29,44.47Z"/><path d="M79.15,37.9a7.39,7.39,0,0,0,1.15-2.4c.92.16,1.77.06,2.69.22A5.41,5.41,0,0,1,81.76,39a2.12,2.12,0,0,0-1.16-1.32A1.5,1.5,0,0,0,79.15,37.9Z"/></g><path class="cls-2" d="M12.32,30.1a5.57,5.57,0,0,1-2,4.17,5.9,5.9,0,0,1-2,1.07,13.94,13.94,0,0,0,.65,1.35l-.41.11a11.6,11.6,0,0,1-.54-1.38,5.06,5.06,0,0,1-1.77.11,4.34,4.34,0,0,1-.72,0A12.41,12.41,0,0,0,6,37.12H5.54a9.79,9.79,0,0,1-.39-1.48.36.36,0,0,1,0-.1h0A5.79,5.79,0,0,1,2,34.27a5.6,5.6,0,0,1-2-4.19c0-.1,0-.2,0-.3l.07-.08A1.85,1.85,0,0,1,1,29.26a1.36,1.36,0,0,1,.35,0,.74.74,0,0,1,.21.22,10.39,10.39,0,0,1,.7,2,4.56,4.56,0,0,0,3.66,2.62,4.39,4.39,0,0,0,4-2.13,15.22,15.22,0,0,0,.78-2.1.37.37,0,0,1,0-.11l.09-.17a2.74,2.74,0,0,1,.5,0,3.08,3.08,0,0,1,.94.19l.08,0C12.32,29.89,12.32,30,12.32,30.1Z"/><path class="cls-2" d="M88.28,30.08a5.6,5.6,0,0,1-2,4.19,5.79,5.79,0,0,1-3.09,1.27h0a.36.36,0,0,1,0,.1,11.93,11.93,0,0,1-.54,1.92h-.46a13,13,0,0,0,.71-2,4.34,4.34,0,0,1-.72,0,5.06,5.06,0,0,1-1.77-.11,10.36,10.36,0,0,1-.78,1.85l-.44-.12a14,14,0,0,0,.92-1.81,5.9,5.9,0,0,1-2-1.07,5.57,5.57,0,0,1-2-4.17c0-.1,0-.21,0-.32l.08,0a3.08,3.08,0,0,1,.94-.19,2.74,2.74,0,0,1,.5,0l.09.17a.37.37,0,0,1,0,.11,15.22,15.22,0,0,0,.78,2.1,4.39,4.39,0,0,0,4,2.13,4.56,4.56,0,0,0,3.66-2.62,10.39,10.39,0,0,1,.7-2,.74.74,0,0,1,.21-.22,1.36,1.36,0,0,1,.35,0,1.85,1.85,0,0,1,.87.44l.07.08C88.28,29.88,88.28,30,88.28,30.08Z"/><g class="cls-4"><path class="cls-5" d="M28.19,25a23.43,23.43,0,0,1,.57-9.68,9.85,9.85,0,0,1,1.91-3.94,4.6,4.6,0,0,1,3.9-1.66c-.1,1-.11,1.91-.2,2.91a8.42,8.42,0,0,0-5.11,4.8C28.38,19.62,28.37,22.6,28.19,25Z"/><path class="cls-5" d="M54.21,12.31c-.06-.94-.11-1.87-.17-2.81A8.82,8.82,0,0,1,58.29,14a8.61,8.61,0,0,1,.14,6.1,14.1,14.1,0,0,0-.76-4.52A5.49,5.49,0,0,0,54.21,12.31Z"/><path class="cls-5" d="M49.11,6.89a5.25,5.25,0,0,0-5.4-2.54,8.85,8.85,0,0,0-5.32,3.28A9.74,9.74,0,0,1,49.11,6.89Z"/><path class="cls-5" d="M18.82,44.05a9.83,9.83,0,0,1,14.58.6,18.55,18.55,0,0,1,19.63,0,10.64,10.64,0,0,1,7.7-3.37,11.2,11.2,0,0,1,8.1,3c-3-1.12-6.34-2.05-9.51-1.35a8.64,8.64,0,0,0-5.85,4.74,22.9,22.9,0,0,0-20.23.71A15.83,15.83,0,0,0,18.82,44.05Z"/><path class="cls-5" d="M42.24,60.3c.94.26,2.88.62,3.71-.13a1.15,1.15,0,0,0-.36-1.93,4.45,4.45,0,0,0-2.71.27C42,58.8,40.51,59.8,42.24,60.3Z"/><path class="cls-5" d="M42.16,72.18a88.75,88.75,0,0,1,.69,17.24C44.52,83.83,43.92,77.74,42.16,72.18Z"/><path class="cls-5" d="M42,96.18a42.69,42.69,0,0,0-2.51,3.59c.73,0,1.27.15,2,.2a19,19,0,0,1,1.86-3.21c-.28,1.08-.59,2.12-.87,3.2h.36a25.39,25.39,0,0,1,2.47-3.53C44.23,96.39,43,96.24,42,96.18Z"/></g><path class="cls-6" d="M53.7,42.16c-.21.21-.42.43-.62.65,0,0,0,.06,0,0l.68-.62Zm-18.5.65c-.22-.24-.45-.48-.68-.71l-.09.07.73.67S35.22,42.83,35.2,42.81Zm53.07-13-.07-.08a1.85,1.85,0,0,0-.87-.44,1.36,1.36,0,0,0-.35,0,.74.74,0,0,0-.21.22,10.39,10.39,0,0,0-.7,2,4.56,4.56,0,0,1-3.66,2.62,4.39,4.39,0,0,1-4-2.13,15.22,15.22,0,0,1-.78-2.1.37.37,0,0,0,0-.11l-.09-.17a2.74,2.74,0,0,0-.5,0,3.08,3.08,0,0,0-.94.19l-.08,0c0,.11,0,.22,0,.32a5.57,5.57,0,0,0,2,4.17,5.9,5.9,0,0,0,2,1.07,14,14,0,0,1-.92,1.81A11.77,11.77,0,0,1,76.78,40a8.22,8.22,0,0,1-3.41,1.81,7.35,7.35,0,0,1-2,.21,9.26,9.26,0,0,0-7.5-4.36l-.59,0a76.75,76.75,0,0,0,.18-9.1c-.11-2.93-.4-5.85-.8-8.76A44.67,44.67,0,0,0,61,11.55C60,8.81,58.32,6,55.28,5.1A3.53,3.53,0,0,0,51.85,6h0a10.41,10.41,0,0,0-1.48-2.66A8.84,8.84,0,0,0,47.6,1a8.36,8.36,0,0,0-1.14-.5A4.49,4.49,0,0,0,44.14,0a4.49,4.49,0,0,0-2.32.48,8.48,8.48,0,0,0-3.91,2.9A10.41,10.41,0,0,0,36.43,6h0a3.38,3.38,0,0,0-3.29-1c-3.13.8-4.87,3.7-5.83,6.49a44.67,44.67,0,0,0-1.67,8.2c-.4,2.91-.69,5.83-.8,8.76a76.75,76.75,0,0,0,.18,9.1l-.59,0-.32,0A9.21,9.21,0,0,0,16.93,42a7.35,7.35,0,0,1-2-.21A8.22,8.22,0,0,1,11.5,40a12.22,12.22,0,0,1-2.62-3.28,13.94,13.94,0,0,1-.65-1.35,5.9,5.9,0,0,0,2-1.07,5.57,5.57,0,0,0,2-4.17c0-.1,0-.21,0-.32l-.08,0a3.08,3.08,0,0,0-.94-.19,2.74,2.74,0,0,0-.5,0l-.09.17a.37.37,0,0,0,0,.11A15.22,15.22,0,0,1,9.87,32a4.39,4.39,0,0,1-4,2.13,4.56,4.56,0,0,1-3.66-2.62,10.39,10.39,0,0,0-.7-2,.74.74,0,0,0-.21-.22,1.36,1.36,0,0,0-.35,0,1.85,1.85,0,0,0-.87.44L0,29.78c0,.1,0,.2,0,.3a5.6,5.6,0,0,0,2,4.19,5.79,5.79,0,0,0,3.09,1.27h0a.36.36,0,0,0,0,.1,9.79,9.79,0,0,0,.39,1.48A12,12,0,0,0,9,42.3a12.25,12.25,0,0,0,6.86,3,7,7,0,0,0,.67,3.78,8.38,8.38,0,0,0,4.22,3.74,14.51,14.51,0,0,0,3.82,1c.46.07.93.12,1.39.16l.87.07a15.41,15.41,0,0,0,7.58,6.84l.76.32a19.17,19.17,0,0,0,1.85.63c.37.11.75.21,1.13.3.37,1.77.74,3.53,1.07,5.31.26,1.32.49,2.64.7,4,.15,1,.29,2,.41,3a66.87,66.87,0,0,1,.23,14.83c-.09.9-.21,1.8-.35,2.7-.09.56-.19,1.12-.31,1.67-.14.72-.31,1.44-.47,2.15H34c-1.78,0-3.58,0-5.36,0l-.47,0c0,.13-.05.26-.07.39a6.71,6.71,0,0,0,.33,3.3,3.79,3.79,0,0,0,.18.42h.43c1.66,0,3.32,0,5,0,2.69,0,5.39,0,8.08,0h4.08c2.69,0,5.38,0,8.08,0,1.64,0,3.3,0,5,0h.43a3.79,3.79,0,0,0,.18-.42,6.71,6.71,0,0,0,.33-3.3c0-.13,0-.26-.07-.39l-.47,0c-1.79-.06-3.58,0-5.36,0H48.83c-.16-.71-.33-1.43-.47-2.15s-.3-1.61-.42-2.42q-.13-1-.24-2a66.87,66.87,0,0,1,.23-14.83c.22-1.84.51-3.66.83-5.47.12-.66.24-1.32.37-2,.31-1.61.65-3.21,1-4.81l.75-.19.49-.14a20.23,20.23,0,0,0,2.5-.92,15.41,15.41,0,0,0,7.58-6.84l1.21-.1.83-.1a14.61,14.61,0,0,0,4-1.06,8.38,8.38,0,0,0,4.22-3.74,7,7,0,0,0,.67-3.78,12.25,12.25,0,0,0,6.86-3,11.61,11.61,0,0,0,3.87-6.66.36.36,0,0,0,0-.1h0a5.79,5.79,0,0,0,3.09-1.27,5.6,5.6,0,0,0,2-4.19C88.28,30,88.28,29.88,88.27,29.78ZM25.6,22.94a77.73,77.73,0,0,1,1.29-7.87A17,17,0,0,1,29.5,8.5,6.23,6.23,0,0,1,32.83,6a4.26,4.26,0,0,1,3.47.57h0a12.54,12.54,0,0,0-.47,1.8,18.4,18.4,0,0,0,.05,6.28c0,.06.12.05.11,0A17.51,17.51,0,0,1,37.25,5.8,10.92,10.92,0,0,1,38,4.44a8.27,8.27,0,0,1,3.77-3.12,6.53,6.53,0,0,1,4.66,0,7.83,7.83,0,0,1,2.41,1.53,8.94,8.94,0,0,1,1.36,1.59c2,3,2.31,6.73,2,10.23,0,.06.1.07.11,0A16.7,16.7,0,0,0,52,6.6h0A4.26,4.26,0,0,1,55.45,6,6.23,6.23,0,0,1,58.78,8.5a17,17,0,0,1,2.61,6.57,77.73,77.73,0,0,1,1.29,7.87,98.62,98.62,0,0,1,.48,14.88,12,12,0,0,0-5.78,1.55l-.16.09a38.07,38.07,0,0,0-6.62-1.83A33.93,33.93,0,0,0,44.49,37h-.7a33.93,33.93,0,0,0-6.11.61,38.22,38.22,0,0,0-6.48,1.78l-.14.05a13,13,0,0,0-1.45-.71,11.64,11.64,0,0,0-4.49-.93A98.62,98.62,0,0,1,25.6,22.94ZM5.27,35.25a5.53,5.53,0,0,1-3-1.22,6.18,6.18,0,0,1-2.14-4h0a1.63,1.63,0,0,1,1.13-.48c.44.47.48,1.45.72,2a4.86,4.86,0,0,0,1,1.48,4.67,4.67,0,0,0,3.21,1.45h0a4.15,4.15,0,0,0,1.39-.24l.17-.06a5,5,0,0,0,1.59-1,4.72,4.72,0,0,0,1.14-1.6A16.3,16.3,0,0,1,11.1,30a2.69,2.69,0,0,1,.73.07l.38.13A6.15,6.15,0,0,1,10.09,34a5.24,5.24,0,0,1-2,1l-.26.07a8.1,8.1,0,0,1-1.65.19,4.53,4.53,0,0,1-.52,0,1.55,1.55,0,0,1-.31,0ZM15.94,45a14.05,14.05,0,0,1-2.63-.58A12,12,0,0,1,9.18,42a13.24,13.24,0,0,1-3.74-6.26,4.34,4.34,0,0,0,.72,0,5.06,5.06,0,0,0,1.77-.11A11.6,11.6,0,0,0,8.47,37a10.52,10.52,0,0,0,3,3.83,8.75,8.75,0,0,0,5.14,1.92,8.34,8.34,0,0,0-.5,1.35A9.37,9.37,0,0,0,15.94,45ZM48.4,96.54h5.86c1.79,0,3.61,0,5.41,0a9.1,9.1,0,0,1-.32,3.26c-1.7-.05-3.4,0-5.09,0-2.7,0-5.39,0-8.08,0H42.1c-2.69,0-5.39,0-8.08,0-1.69,0-3.39,0-5.09,0a9.1,9.1,0,0,1-.32-3.26c1.8,0,3.62,0,5.41,0H48.4Zm.2-29.29c-.06.27-.11.54-.17.82q-.16.78-.3,1.56A76.81,76.81,0,0,0,46.7,83.32a55.07,55.07,0,0,0,.45,7.49c0,.2.05.4.08.6.11.88.24,1.79.41,2.68L46,96H41.93L40.34,94c.13-.66.23-1.34.32-2,.06-.41.11-.82.17-1.23a56.72,56.72,0,0,0,.44-7.49,73.7,73.7,0,0,0-1.13-12h0c-.18-1.07-.38-2.13-.6-3.19,0-.13,0-.25-.07-.37-.36-1.76-.75-3.52-1.2-5.26A24.39,24.39,0,0,0,44,63a24.31,24.31,0,0,0,5.71-.54C49.3,64,48.93,65.64,48.6,67.25Zm4.92-6.54a17.72,17.72,0,0,1-2.32.81l-.14,0c-.27.08-.54.14-.82.21l-.22.05a31.28,31.28,0,0,1-5.88.61,31.28,31.28,0,0,1-5.88-.61L38,61.76l-.62-.15q-.77-.2-1.5-.45c-.39-.14-.78-.28-1.16-.45a16.52,16.52,0,0,1-7.64-6.41l.27,0c2.59.15,5.19.25,7.78.29,2.91,0,5.82.08,8.72,0h.5c2.9.12,5.81.09,8.71,0q3.9-.06,7.79-.29l.27,0A16.52,16.52,0,0,1,53.52,60.71ZM72,46.45c-.2,4.5-4.59,6.51-8.52,6.95l-.21,0-.85.07-.59,0H61.6c-1.59.09-3.19.08-4.78.13q-2.09.06-4.17.09-1.49,0-3,0c-1.85,0-3.69,0-5.54-.09s-3.69.09-5.54.09q-1.49,0-3,0-2.09,0-4.17-.09c-1.59-.05-3.19,0-4.78-.13h-.36q-.74,0-1.47-.12l-.15,0c-3.88-.47-8.17-2.49-8.38-6.93,0-.31,0-.62,0-.93,0-.15,0-.29.05-.44a7.15,7.15,0,0,1,.76-2.34c.11-.2.22-.39.34-.57A8.78,8.78,0,0,1,23,38.49a9.4,9.4,0,0,1,2.1-.24h.08a10.83,10.83,0,0,1,2.61.3,12.8,12.8,0,0,1,2,.67,6.48,6.48,0,0,0,.86.32h0c.14.14.28.22.42,1h0c.08-.67.16-.62.24-.58a18.93,18.93,0,0,1,3.12,2.21l.73.67s.06,0,0,0c-.22-.24-.45-.48-.68-.71a16.94,16.94,0,0,0-3.05-2.41,35.64,35.64,0,0,1,6.32-1.49,38.79,38.79,0,0,1,4.82-.36h3a38,38,0,0,1,4.89.36,35.85,35.85,0,0,1,6.32,1.49,16.48,16.48,0,0,0-3.11,2.47c-.21.21-.42.43-.62.65,0,0,0,.06,0,0l.68-.62a5.28,5.28,0,0,1,3.41-1.68h0c0-.73.06-.74.09-.76a.86.86,0,0,0,.33-.24h0a13.1,13.1,0,0,1,5.51-1.29h.08a9.4,9.4,0,0,1,2.1.24,8.78,8.78,0,0,1,5.47,3.68c.12.18.23.37.34.57a7.15,7.15,0,0,1,.76,2.34c0,.15,0,.29,0,.44A7.22,7.22,0,0,1,72,46.45Zm10.18-8.67a12.2,12.2,0,0,1-3,4.25A12,12,0,0,1,75,44.45a14.05,14.05,0,0,1-2.63.58,9.37,9.37,0,0,0-.19-.92,8.34,8.34,0,0,0-.5-1.35,8.78,8.78,0,0,0,5.14-1.92,10.47,10.47,0,0,0,2.78-3.36,10.36,10.36,0,0,0,.78-1.85,5.06,5.06,0,0,0,1.77.11,4.34,4.34,0,0,0,.72,0A13,13,0,0,1,82.13,37.78Zm6-7.7A6.18,6.18,0,0,1,86,34a5.53,5.53,0,0,1-3,1.22h-.08a1.63,1.63,0,0,1-.31,0,4.53,4.53,0,0,1-.52,0,8.1,8.1,0,0,1-1.65-.19l-.26-.07a5.24,5.24,0,0,1-2-1,6.15,6.15,0,0,1-2.12-3.85l.38-.13a2.69,2.69,0,0,1,.73-.07,16.3,16.3,0,0,1,.57,1.67,4.72,4.72,0,0,0,1.14,1.6,5,5,0,0,0,1.59,1l.17.06a4.15,4.15,0,0,0,1.39.24h0a4.67,4.67,0,0,0,3.21-1.45,4.86,4.86,0,0,0,1-1.48c.24-.56.28-1.54.72-2a1.63,1.63,0,0,1,1.13.48ZM35.2,42.81c-.22-.24-.45-.48-.68-.71l-.09.07.73.67S35.22,42.83,35.2,42.81Zm18.5-.65c-.21.21-.42.43-.62.65,0,0,0,.06,0,0l.68-.62Zm-18.5.65c-.22-.24-.45-.48-.68-.71l-.09.07.73.67S35.22,42.83,35.2,42.81Zm18.5-.65c-.21.21-.42.43-.62.65,0,0,0,.06,0,0l.68-.62Z"/></g></g></svg>