<?xml version="1.0" encoding="iso-8859-1"?>
<!-- Generator: Adobe Illustrator 19.0.0, SVG Export Plug-In . SVG Version: 6.00 Build 0)  -->
<svg xmlns="http://www.w3.org/2000/svg" xmlns:xlink="http://www.w3.org/1999/xlink" version="1.1" id="Layer_1" x="0px" y="0px" viewBox="0 0 508 508" style="enable-background:new 0 0 508 508;" xml:space="preserve">
<path style="fill:#EEEEEE;" d="M301.6,39.6h-98.8v409.6c0,29.6,24.4,53.6,54,53.6s54-24,54-53.6v-404L301.6,39.6z"/>
<rect x="182.8" y="5.6" style="fill:#BCAAA4;" width="142" height="36"/>
<path d="M264,48h-64c-2.4,0-4-1.6-4-4s1.6-4,4-4h64c2.4,0,4,1.6,4,4S266.4,48,264,48z"/>
<path d="M312,48h-12c-2.4,0-4-1.6-4-4s1.6-4,4-4h12c2.4,0,4,1.6,4,4S314.4,48,312,48z"/>
<path d="M284,264h-56c-2.4,0-4-1.6-4-4s1.6-4,4-4h56c2.4,0,4,1.6,4,4S286.4,264,284,264z"/>
<path d="M284,308h-56c-2.4,0-4-1.6-4-4s1.6-4,4-4h56c2.4,0,4,1.6,4,4S286.4,308,284,308z"/>
<path d="M284,352h-56c-2.4,0-4-1.6-4-4s1.6-4,4-4h56c2.4,0,4,1.6,4,4S286.4,352,284,352z"/>
<path d="M284,396h-56c-2.4,0-4-1.6-4-4s1.6-4,4-4h56c2.4,0,4,1.6,4,4S286.4,396,284,396z"/>
<path d="M254,508c-33.2,0-60-26.8-60-59.6V48h-12c-2.4,0-4-1.6-4-4V4c0-2.4,1.6-4,4-4h144c2.4,0,4,1.6,4,4v40c0,2.4-1.6,4-4,4h-12  v400.4C314,481.2,287.2,508,254,508z M186,40h12c2.4,0,4,1.6,4,4v404.4c0,28.4,23.2,51.6,52,51.6s52-23.2,52-51.6V44  c0-2.4,1.6-4,4-4h12V8H186V40z"/>
<g>
</g>
<g>
</g>
<g>
</g>
<g>
</g>
<g>
</g>
<g>
</g>
<g>
</g>
<g>
</g>
<g>
</g>
<g>
</g>
<g>
</g>
<g>
</g>
<g>
</g>
<g>
</g>
<g>
</g>
</svg>
