<svg height="511pt" viewBox="0 0 511 511.999" width="511pt" xmlns="http://www.w3.org/2000/svg"><path d="m315.390625 197.652344c-7.738281-7.734375-13.949219-16.367188-18.554687-25.582032l-26.121094 26.121094c-4.160156 4.160156-4.160156 10.910156 0 15.070313l29.066406 29.0625c4.160156 4.164062 10.90625 4.164062 15.070312 0l26.121094-26.121094c-9.214844-4.601563-17.847656-10.8125-25.582031-18.550781zm0 0" fill="#bdbdbd"/><path d="m318.855469 200.949219-22.691407 22.691406c-4.164062 4.160156-10.910156 4.160156-15.070312 0l-10.378906-10.378906 29.0625 29.0625c4.164062 4.164062 10.910156 4.164062 15.070312 0l26.121094-26.121094c-7.859375-3.925781-15.292969-9.035156-22.113281-15.253906zm0 0" fill="#a3a3a3"/><path d="m254.4375 316.042969c18.496094-51.34375 40.554688-69.707031 45.667969-73.421875-.109375-.101563-.222657-.191406-.324219-.292969l-27.871094-27.871094c-13.089844 11.035157-36.027344 36.3125-54.710937 88.167969-17.105469 47.480469-47.265625 66.296875-92.203125 66.261719-96.304688-.074219-130.015625 133.210937-123.777344 139.445312 1.152344 1.152344 2.464844 2.179688 3.933594 3.046875 9.40625 5.566406 52.601562-107.046875 129.445312-104.09375 48.402344 1.863282 95.578125-23.902344 119.839844-91.242187zm0 0" fill="#e0e0e0"/><path d="m286.105469 228.652344-14.191407-14.191406zm0 0" fill="#c9c9c9"/><path d="m299.78125 242.328125-13.371094-13.371094c-5.140625 3.746094-27.171875 22.121094-45.648437 73.410157-24.257813 67.339843-71.4375 93.105468-119.839844 91.242187-58.1875-2.234375-97.078125 61.785156-116.617187 90.589844-3.71875 13.210937-4.632813 22.585937-3.085938 24.132812 1.152344 1.152344 2.46875 2.179688 3.933594 3.046875 9.40625 5.5625 52.605468-107.046875 129.445312-104.09375 48.402344 1.859375 95.582032-23.902344 119.839844-91.242187 18.5-51.347657 40.558594-69.707031 45.667969-73.425781-.109375-.09375-.21875-.1875-.324219-.289063zm0 0" fill="#c9c9c9"/><path d="m374.726562 21.507812c44.078126-21.3125 94.9375-28.398437 120.074219-3.261718 36.859375 36.859375 4.4375 129.039062-40.546875 174.027344-44.988281 44.984374-102.003906 42.242187-138.863281 5.382812s-39.605469-93.878906 5.378906-138.863281c8.363281-8.363281 18.355469-16.289063 29.320313-23.417969 0 0 15.417968-9.667969 24.636718-13.867188zm0 0" fill="#e0e0e0"/><path d="m494.800781 18.242188c-4.269531-4.265626-9.292969-7.582032-14.882812-10.082032 19.054687 42.710938-10.882813 119.359375-50.652344 159.125-39.773437 39.773438-88.949219 42.230469-125.285156 16.792969 3.332031 4.761719 7.136719 9.304687 11.410156 13.578125 36.859375 36.859375 93.875 39.601562 138.863281-5.382812 44.984375-44.988282 77.40625-137.167969 40.546875-174.03125zm0 0" fill="#c9c9c9"/><path d="m234.601562 98.015625c-23.203124 23.203125-52.613281 21.785156-71.625 2.773437-19.011718-19.007812-20.425781-48.417968 2.777344-71.621093s70.75-39.925781 89.761719-20.914063c19.011719 19.011719 2.289063 66.558594-20.914063 89.761719zm0 0" fill="#e0e0e0"/><path d="m255.515625 8.253906c-3.449219-3.449218-7.851563-5.710937-12.867187-6.980468 5.734374 22.613281-8.902344 57.902343-27.894532 76.894531-18.988281 18.992187-42.136718 21.484375-60.339844 11.339843 2.25 4.035157 5.113282 7.832032 8.5625 11.28125 19.011719 19.011719 48.421876 20.429688 71.625-2.773437 23.203126-23.203125 39.925782-70.75 20.914063-89.761719zm0 0" fill="#c9c9c9"/><path d="m162.976562 100.789062c-3.988281-3.988281-7.191406-8.441406-9.566406-13.191406l-13.472656 13.472656c-2.148438 2.144532-2.148438 5.625 0 7.773438l14.988281 14.988281c2.148438 2.148438 5.628907 2.148438 7.773438 0l13.472656-13.472656c-4.75-2.375-9.203125-5.578125-13.195313-9.570313zm0 0" fill="#bdbdbd"/><path d="m105.09375 198.910156c-10.71875 7.4375-22.964844 10.484375-35.367188 10.007813-39.632812-1.523438-61.914062 56.558593-66.765624 53.6875-.757813-.445313-1.433594-.976563-2.027344-1.570313-3.21875-3.214844 14.167968-71.964844 63.839844-71.925781 23.179687.019531 38.734374-9.683594 47.558593-34.175781 9.636719-26.746094 21.46875-39.785156 28.21875-45.476563l14.375 14.375c.054688.054688.113281.101563.167969.152344-2.636719 1.917969-14.015625 11.386719-23.554688 37.871094-3.492187 9.695312-7.910156 17.71875-13.003906 24.226562 0 .003907-4.910156 7.960938-13.441406 12.828125zm0 0" fill="#e0e0e0"/><path d="m481.574219 347.304688c-23.203125 23.203124-52.613281 21.789062-71.625 2.777343s-20.425781-48.421875 2.777343-71.625c23.199219-23.203125 70.746094-39.925781 89.757813-20.914062s2.289063 66.558593-20.910156 89.761719zm0 0" fill="#e0e0e0"/><path d="m502.484375 257.542969c-3.65625-3.65625-8.375-5.980469-13.765625-7.199219 5.125 22.640625-9.375 57.253906-28.113281 75.992188-18.742188 18.738281-41.527344 21.414062-59.617188 11.734374 2.304688 4.308594 5.304688 8.351563 8.960938 12.007813 19.011719 19.011719 48.421875 20.429687 71.625-2.773437 23.199219-23.203126 39.921875-70.75 20.910156-89.761719zm0 0" fill="#c9c9c9"/><path d="m409.949219 350.082031c-3.992188-3.992187-7.195313-8.445312-9.570313-13.195312l-13.472656 13.472656c-2.144531 2.144531-2.144531 5.625 0 7.773437l14.992188 14.992188c2.144531 2.144531 5.625 2.144531 7.773437 0l13.472656-13.472656c-4.753906-2.378906-9.207031-5.582032-13.195312-9.570313zm0 0" fill="#bdbdbd"/><path d="m352.675781 447.765625c-10.863281 7.75-23.335937 10.925781-35.976562 10.441406-39.636719-1.523437-61.914063 56.558594-66.769531 53.6875-.753907-.445312-1.433594-.976562-2.027344-1.570312-3.214844-3.214844 14.171875-71.964844 63.84375-71.921875 23.179687.019531 38.734375-9.6875 47.558594-34.175782 9.632812-26.75 21.464843-39.785156 28.21875-45.476562l14.375 14.371094c.050781.054687.109374.101562.164062.152344-2.632812 1.917968-14.011719 11.386718-23.550781 37.871093-3.496094 9.695313-7.910157 17.71875-13.003907 24.230469 0 0-2.441406 6.535156-12.832031 12.390625zm0 0" fill="#e0e0e0"/></svg>